#!OML:ASF I:\Actors\actors\Patient Classification 1\Patient 1\Session 1\Subject1.ASF
:FULLY-SPECIFIED
:DEGREES
1218
root -0.641018 17.6459 7.50145 8.48257 -1.94912 -8.00342
lowerback 3.28831 0.274763 5.25372
upperback -11.0193 1.20301 2.50599
thorax -13.8618 0.182324 -0.348003
lowerneck -16.2757 -3.82686 0.0159428
upperneck 28.9971 -7.17158 4.80188
head 12.5153 -2.57369 0.70696
rclavicle -1.57661e-014 9.98893e-015
rhumerus 47.4408 1.31802 -81.219
rradius 40.8373
rwrist 23.1728
rhand -9.20384 -38.8204
rfingers 7.12502
rthumb 16.7502 -68.1178
lclavicle -1.57661e-014 9.98893e-015
lhumerus 44.4776 -5.66068 84.0882
lradius 46.2142
lwrist 7.30537
lhand -37.9593 -19.9994
lfingers 7.12502
lthumb -11 9.69241
rfemur -1.98058 22.7235 27.7137
rtibia 2.03033
rfoot -11.8776 -25.0552
rtoes 7.08868
lfemur 1.25197 -36.0257 -10.6572
ltibia -2.49676
lfoot -10.9899 42.3905
ltoes 0.591331
1219
root -0.641701 17.6448 7.50072 8.51586 -2.26613 -8.05079
lowerback 3.50927 0.462604 4.92869
upperback -10.9935 1.46229 2.68821
thorax -13.9673 0.353337 -0.00751515
lowerneck -16.3127 -3.95099 -0.0819707
upperneck 29.1617 -7.31529 4.73344
head 12.5945 -2.65114 0.674405
rclavicle -9.05091e-015 5.72251e-014
rhumerus 46.4596 0.837668 -81.8296
rradius 41.0595
rwrist 23.0514
rhand -9.30006 -38.8636
rfingers 7.12502
rthumb 16.6576 -68.1688
lclavicle -9.05091e-015 5.72251e-014
lhumerus 46.6217 -6.09391 83.189
lradius 44.6395
lwrist 6.74029
lhand -37.7442 -19.9738
lfingers 7.12502
lthumb -10.7925 9.72896
rfemur -2.01229 22.6968 27.7282
rtibia 1.98122
rfoot -11.6811 -24.7669
rtoes 6.88616
lfemur 1.41589 -36.2446 -10.7356
ltibia -2.53034
lfoot -11.2793 42.8869
ltoes 1.17984
1220
root -0.640793 17.6436 7.50151 8.53109 -2.60077 -8.01059
lowerback 3.67969 0.635766 4.53367
upperback -10.9775 1.68931 2.86786
thorax -14.0603 0.516844 0.37366
lowerneck -16.3849 -4.06524 -0.528432
upperneck 29.4779 -7.46552 5.01311
head 12.7767 -2.71851 0.831764
rclavicle -1.13245e-014 4.51862e-014
rhumerus 45.4782 0.634192 -82.1538
rradius 41.1601
rwrist 22.3738
rhand -9.32954 -38.9985
rfingers 7.12502
rthumb 16.6292 -68.3061
lclavicle -1.13245e-014 4.51862e-014
lhumerus 48.4064 -6.42156 82.3709
lradius 43.0542
lwrist 6.20429
lhand -37.2707 -19.8329
lfingers 7.12502
lthumb -10.3358 9.8931
rfemur -2.00351 22.7061 27.6399
rtibia 1.91051
rfoot -11.5743 -24.4883
rtoes 6.81984
lfemur 1.63472 -36.4336 -10.9571
ltibia -2.60186
lfoot -11.5422 43.3982
ltoes 1.62782
1221
root -0.638861 17.6434 7.50354 8.5477 -2.93611 -7.91796
lowerback 3.77953 0.751149 4.13685
upperback -10.9632 1.83134 3.05141
thorax -14.1183 0.641059 0.773784
lowerneck -16.5555 -4.08655 -1.11531
upperneck 30.027 -7.51727 5.4697
head 13.0915 -2.72615 1.09803
rclavicle 2.47238e-015 -2.52953e-014
rhumerus 44.4974 0.678036 -82.4526
rradius 41.2354
rwrist 21.3954
rhand -9.10864 -39.0053
rfingers 7.12502
rthumb 16.8419 -68.2949
lclavicle 2.47238e-015 -2.52953e-014
lhumerus 49.8716 -6.55825 81.5057
lradius 41.5703
lwrist 5.6862
lhand -36.8985 -20.0022
lfingers 7.12502
lthumb -9.97669 9.7414
rfemur -2.01658 22.7045 27.4767
rtibia 1.85362
rfoot -11.3976 -24.2124
rtoes 6.37183
lfemur 1.81153 -36.5442 -11.2131
ltibia -2.638
lfoot -11.9977 43.7718
ltoes 2.29164
1222
root -0.636446 17.6445 7.50667 8.61271 -3.23594 -7.82612
lowerback 3.76073 0.865785 3.84689
upperback -10.9345 1.96622 3.16322
thorax -14.0814 0.746164 1.03702
lowerneck -16.6008 -4.07181 -1.25883
upperneck 30.3555 -7.50108 5.53181
head 13.2478 -2.71646 1.15092
rclavicle -1.35919e-014 4.92986e-014
rhumerus 43.6181 0.526969 -82.981
rradius 41.1914
rwrist 20.8016
rhand -9.03012 -38.9716
rfingers 7.12502
rthumb 16.9174 -68.2548
lclavicle -1.35919e-014 4.92986e-014
lhumerus 51.1784 -6.69023 80.6411
lradius 40.2897
lwrist 5.3077
lhand -36.6239 -20.163
lfingers 7.12502
lthumb -9.71176 9.59312
rfemur -2.10933 22.7475 27.3081
rtibia 1.85209
rfoot -11.1778 -24.037
rtoes 5.80123
lfemur 1.84903 -36.488 -11.3689
ltibia -2.63771
lfoot -12.3841 43.9332
ltoes 2.86801
1223
root -0.632154 17.6467 7.51023 8.70503 -3.43913 -7.75805
lowerback 3.64722 0.980786 3.71398
upperback -10.886 2.10331 3.20378
thorax -13.9548 0.830829 1.1345
lowerneck -16.5673 -4.05633 -0.937496
upperneck 30.4366 -7.44358 5.11327
head 13.2359 -2.70883 0.943953
rclavicle -1.18525e-014 3.6477e-014
rhumerus 42.9963 0.184038 -83.5751
rradius 40.8606
rwrist 20.7757
rhand -9.25693 -38.9736
rfingers 7.12502
rthumb 16.6991 -68.2753
lclavicle -1.18525e-014 3.6477e-014
lhumerus 52.1573 -6.85178 80.09
lradius 39.3447
lwrist 4.88462
lhand -36.584 -20.2246
lfingers 7.12502
lthumb -9.6733 9.53333
rfemur -2.236 22.7985 27.1717
rtibia 1.88415
rfoot -11.0294 -23.9617
rtoes 5.33484
lfemur 1.77939 -36.3452 -11.4317
ltibia -2.60922
lfoot -12.5847 43.9646
ltoes 3.24132
1224
root -0.625092 17.6495 7.51281 8.74523 -3.56182 -7.70742
lowerback 3.57655 1.05016 3.70848
upperback -10.8328 2.1934 3.23528
thorax -13.847 0.878125 1.15825
lowerneck -16.8834 -4.23536 -0.806307
upperneck 30.8577 -7.62269 4.61676
head 13.4564 -2.82108 0.692357
rclavicle -8.52289e-015 -1.03368e-014
rhumerus 42.5432 0.0392923 -83.921
rradius 40.5295
rwrist 20.9465
rhand -9.45492 -39.0629
rfingers 7.12502
rthumb 16.5085 -68.3806
lclavicle -8.52289e-015 -1.03368e-014
lhumerus 52.7499 -6.87273 79.8897
lradius 38.6446
lwrist 4.52123
lhand -36.7321 -20.4948
lfingers 7.12502
lthumb -9.81617 9.2564
rfemur -2.30402 22.8067 27.0637
rtibia 1.90609
rfoot -10.9927 -23.8966
rtoes 5.15088
lfemur 1.69781 -36.1316 -11.4828
ltibia -2.51954
lfoot -12.6341 43.8544
ltoes 3.33148
1225
root -0.617627 17.6521 7.51353 8.71176 -3.61322 -7.69731
lowerback 3.6024 1.08308 3.79346
upperback -10.7798 2.24925 3.26215
thorax -13.7985 0.89819 1.13081
lowerneck -17.2324 -4.26728 -0.515648
upperneck 31.3834 -7.62321 4.06499
head 13.7141 -2.84041 0.418168
rclavicle 5.81445e-015 -1.19271e-015
rhumerus 42.5313 4.86085e-005 -84.1544
rradius 39.689
rwrist 21.1658
rhand -9.66814 -39.0117
rfingers 7.12502
rthumb 16.3032 -68.3464
lclavicle 5.81445e-015 -1.19271e-015
lhumerus 53.0825 -6.78641 79.9661
lradius 38.0965
lwrist 4.44695
lhand -36.6507 -20.7186
lfingers 7.12502
lthumb -9.73766 9.03628
rfemur -2.27407 22.8355 27.034
rtibia 1.90524
rfoot -11.0023 -23.8923
rtoes 5.24156
lfemur 1.68776 -35.9034 -11.51
ltibia -2.46805
lfoot -12.5257 43.6896
ltoes 3.23585
1226
root -0.610747 17.653 7.51291 8.66705 -3.58892 -7.63975
lowerback 3.63427 1.09853 3.85035
upperback -10.7302 2.27617 3.26359
thorax -13.7572 0.905647 1.09528
lowerneck -17.2539 -4.17804 -0.458228
upperneck 31.4632 -7.50011 4.02284
head 13.7447 -2.78242 0.412406
rclavicle 2.56929e-014 1.43125e-014
rhumerus 42.4818 -0.0944653 -84.3674
rradius 39.3029
rwrist 21.3704
rhand -9.67568 -39.0204
rfingers 7.12502
rthumb 16.2959 -68.3557
lclavicle 2.56929e-014 1.43125e-014
lhumerus 53.1783 -6.63376 80.4712
lradius 37.7772
lwrist 4.39583
lhand -36.4451 -20.5678
lfingers 7.12502
lthumb -9.53929 9.19624
rfemur -2.23082 22.9093 26.9664
rtibia 1.9196
rfoot -11.0702 -23.9718
rtoes 5.46241
lfemur 1.70031 -35.7559 -11.5888
ltibia -2.48751
lfoot -12.2639 43.5414
ltoes 3.00062
1227
root -0.604726 17.6521 7.5117 8.63839 -3.50945 -7.54849
lowerback 3.63621 1.09815 3.87639
upperback -10.6778 2.27469 3.25282
thorax -13.6939 0.902367 1.0681
lowerneck -17.1801 -4.13762 -0.569613
upperneck 31.378 -7.46395 4.22344
head 13.7067 -2.75547 0.518613
rclavicle -8.19987e-015 1.27222e-014
rhumerus 42.5466 -0.201086 -84.4965
rradius 39.1785
rwrist 21.4877
rhand -9.66265 -38.9804
rfingers 7.12502
rthumb 16.3085 -68.3146
lclavicle -8.19987e-015 1.27222e-014
lhumerus 53.1108 -6.47029 81.1006
lradius 37.6271
lwrist 4.28114
lhand -36.3291 -20.1359
lfingers 7.12502
lthumb -9.42734 9.63329
rfemur -2.21269 22.9987 26.8594
rtibia 1.95015
rfoot -11.1834 -24.1127
rtoes 5.67039
lfemur 1.66422 -35.6793 -11.6905
ltibia -2.4826
lfoot -11.8817 43.3848
ltoes 2.52274
